<svg xmlns="http://www.w3.org/2000/svg" width="22" height="24" fill="none" viewBox="0 0 22 24">
  <g filter="url(#filter0_d_503_1827)">
    <path fill="#fff" fill-opacity=".9" d="M8.336 17.727h5.672c.62 0 1.182-.136 1.687-.407a3.05 3.05 0 001.203-1.125c.303-.479.454-1.039.454-1.68 0-.64-.151-1.2-.454-1.68a3.051 3.051 0 00-1.203-1.124 3.515 3.515 0 00-1.687-.406H8.336c-.62 0-1.182.135-1.688.406-.505.266-.908.64-1.21 1.125-.297.48-.446 1.039-.446 1.68 0 .64.149 1.2.446 1.68.302.484.705.859 1.21 1.124.506.271 1.068.407 1.688.407zm5.875-1.18a2.025 2.025 0 01-1.024-.281 2.067 2.067 0 01-.734-.735 2.012 2.012 0 01-.265-1.023c0-.37.088-.708.265-1.016.182-.307.427-.552.735-.734a1.968 1.968 0 011.023-.274c.375 0 .716.091 1.023.274.313.182.56.427.743.734.182.302.27.638.265 1.008 0 .375-.094.719-.281 1.031-.182.313-.427.56-.734.742-.303.183-.641.274-1.016.274zm-5.555-6.445h5.04c.666 0 1.275-.149 1.827-.446.558-.297 1-.713 1.329-1.25.333-.536.5-1.159.5-1.867s-.167-1.33-.5-1.867a3.407 3.407 0 00-1.329-1.25 3.797 3.797 0 00-1.828-.445H8.656a3.86 3.86 0 00-1.844.445 3.479 3.479 0 00-1.328 1.25c-.328.536-.492 1.159-.492 1.867s.164 1.33.492 1.867c.334.537.776.953 1.329 1.25a3.86 3.86 0 001.843.446zm0-1.18c-.437 0-.846-.1-1.226-.297a2.517 2.517 0 01-.914-.836 2.274 2.274 0 01-.344-1.25c0-.474.114-.888.344-1.242.234-.36.539-.638.914-.836.38-.203.789-.305 1.226-.305h5.04c.432 0 .835.102 1.21.305.38.198.685.476.914.836.235.354.352.768.352 1.242s-.117.89-.352 1.25c-.229.354-.534.633-.914.836a2.555 2.555 0 01-1.21.297h-5.04zm0-.531c.344.005.654-.076.93-.243.281-.171.505-.398.672-.68.172-.286.258-.6.258-.945a1.711 1.711 0 00-.243-.93 1.808 1.808 0 00-.68-.663 1.804 1.804 0 00-.937-.25c-.344 0-.656.083-.937.25-.282.166-.505.39-.672.672a1.834 1.834 0 00-.242.93c0 .343.08.655.242.937.167.281.39.505.672.672.281.166.593.25.937.25z"/>
  </g>
  <defs>
    <filter id="filter0_d_503_1827" width="20.359" height="22.75" x=".992" y=".977" color-interpolation-filters="sRGB" filterUnits="userSpaceOnUse">
      <feFlood flood-opacity="0" result="BackgroundImageFix"/>
      <feColorMatrix in="SourceAlpha" result="hardAlpha" values="0 0 0 0 0 0 0 0 0 0 0 0 0 0 0 0 0 0 127 0"/>
      <feOffset dy="2"/>
      <feGaussianBlur stdDeviation="2"/>
      <feColorMatrix values="0 0 0 0 0 0 0 0 0 0 0 0 0 0 0 0 0 0 0.15 0"/>
      <feBlend in2="BackgroundImageFix" result="effect1_dropShadow_503_1827"/>
      <feBlend in="SourceGraphic" in2="effect1_dropShadow_503_1827" result="shape"/>
    </filter>
  </defs>
</svg>
