<svg xmlns="http://www.w3.org/2000/svg" width="26" height="21" fill="none" viewBox="0 0 26 21">
  <g filter="url(#filter0_d_503_1821)">
    <path fill="#fff" fill-opacity=".9" d="M12.648 14.492a.469.469 0 00.25-.078c.089-.052.206-.148.352-.289l1.828-1.758a.289.289 0 00.102-.195.286.286 0 00-.063-.219c-.245-.318-.586-.594-1.023-.828a2.983 2.983 0 00-1.446-.352 3 3 0 00-1.476.368c-.438.244-.779.53-1.024.859a.264.264 0 00-.039.188.37.37 0 00.118.18l1.828 1.757c.14.14.255.237.343.29a.498.498 0 00.25.077zm-4.39-4.101a.33.33 0 00.258.109.38.38 0 00.257-.133c.448-.505 1.019-.92 1.711-1.242a4.98 4.98 0 012.164-.477 4.887 4.887 0 012.18.493c.693.328 1.268.744 1.727 1.25a.326.326 0 00.242.117.357.357 0 00.242-.125l1.164-1.149a.317.317 0 00.102-.203.315.315 0 00-.07-.219 5.978 5.978 0 00-1.43-1.242 7.34 7.34 0 00-1.922-.867 7.7 7.7 0 00-2.235-.32 7.7 7.7 0 00-2.234.32A7.365 7.365 0 008.5 7.57a5.978 5.978 0 00-1.43 1.242.29.29 0 00-.078.211c.005.073.04.144.102.211l1.164 1.157zM5.133 7.258a.334.334 0 00.25.117.344.344 0 00.25-.125 9.391 9.391 0 013.18-2.227 9.646 9.646 0 013.835-.765c1.37 0 2.652.255 3.844.765a9.386 9.386 0 013.18 2.235.33.33 0 00.242.101.31.31 0 00.242-.117l1.032-1.039a.282.282 0 00.101-.21.3.3 0 00-.07-.22c-.589-.724-1.331-1.37-2.227-1.937a11.628 11.628 0 00-2.976-1.344A11.551 11.551 0 0012.648 2a11.63 11.63 0 00-3.375.492c-1.088.323-2.08.771-2.976 1.344-.89.568-1.63 1.213-2.219 1.937a.331.331 0 00-.078.22c.005.077.04.148.102.21l1.03 1.055z"/>
  </g>
  <defs>
    <filter id="filter0_d_503_1821" width="25.29" height="20.492" x="0" y="0" color-interpolation-filters="sRGB" filterUnits="userSpaceOnUse">
      <feFlood flood-opacity="0" result="BackgroundImageFix"/>
      <feColorMatrix in="SourceAlpha" result="hardAlpha" values="0 0 0 0 0 0 0 0 0 0 0 0 0 0 0 0 0 0 127 0"/>
      <feOffset dy="2"/>
      <feGaussianBlur stdDeviation="2"/>
      <feColorMatrix values="0 0 0 0 0 0 0 0 0 0 0 0 0 0 0 0 0 0 0.15 0"/>
      <feBlend in2="BackgroundImageFix" result="effect1_dropShadow_503_1821"/>
      <feBlend in="SourceGraphic" in2="effect1_dropShadow_503_1821" result="shape"/>
    </filter>
  </defs>
</svg>
